<svg width="1200" height="800" viewBox="0 0 1200 800" fill="none" xmlns="http://www.w3.org/2000/svg">
  <defs>
    <linearGradient id="bg" x1="0" y1="0" x2="1200" y2="800" gradientUnits="userSpaceOnUse">
      <stop stop-color="#0f172a"/>
      <stop offset="0.55" stop-color="#1d4ed8"/>
      <stop offset="1" stop-color="#14b8a6"/>
    </linearGradient>
    <linearGradient id="card" x1="200" y1="140" x2="980" y2="700" gradientUnits="userSpaceOnUse">
      <stop stop-color="#ffffff" stop-opacity="0.95"/>
      <stop offset="1" stop-color="#dbeafe" stop-opacity="0.75"/>
    </linearGradient>
  </defs>

  <rect width="1200" height="800" rx="42" fill="url(#bg)"/>

  <circle cx="1060" cy="130" r="96" fill="#fff" fill-opacity="0.12"/>
  <circle cx="170" cy="640" r="120" fill="#fff" fill-opacity="0.08"/>

  <rect x="170" y="115" width="860" height="570" rx="34" fill="url(#card)"/>

  <rect x="230" y="185" width="420" height="46" rx="12" fill="#1e3a8a" fill-opacity="0.1"/>
  <rect x="230" y="252" width="700" height="26" rx="10" fill="#0f172a" fill-opacity="0.12"/>
  <rect x="230" y="294" width="640" height="26" rx="10" fill="#0f172a" fill-opacity="0.1"/>

  <rect x="230" y="356" width="700" height="260" rx="20" fill="#ffffff" fill-opacity="0.85" stroke="#1e40af" stroke-opacity="0.2" stroke-width="2"/>
  <rect x="258" y="387" width="160" height="20" rx="8" fill="#1d4ed8" fill-opacity="0.2"/>
  <rect x="432" y="387" width="230" height="20" rx="8" fill="#0f172a" fill-opacity="0.12"/>
  <rect x="676" y="387" width="220" height="20" rx="8" fill="#0f172a" fill-opacity="0.12"/>

  <rect x="258" y="425" width="638" height="2" fill="#1e3a8a" fill-opacity="0.14"/>

  <rect x="258" y="452" width="160" height="16" rx="6" fill="#0f172a" fill-opacity="0.1"/>
  <rect x="432" y="452" width="230" height="16" rx="6" fill="#0f172a" fill-opacity="0.07"/>
  <rect x="676" y="452" width="220" height="16" rx="6" fill="#0f172a" fill-opacity="0.07"/>

  <rect x="258" y="484" width="160" height="16" rx="6" fill="#0f172a" fill-opacity="0.1"/>
  <rect x="432" y="484" width="230" height="16" rx="6" fill="#0f172a" fill-opacity="0.07"/>
  <rect x="676" y="484" width="220" height="16" rx="6" fill="#0f172a" fill-opacity="0.07"/>

  <rect x="258" y="516" width="160" height="16" rx="6" fill="#0f172a" fill-opacity="0.1"/>
  <rect x="432" y="516" width="230" height="16" rx="6" fill="#0f172a" fill-opacity="0.07"/>
  <rect x="676" y="516" width="220" height="16" rx="6" fill="#0f172a" fill-opacity="0.07"/>

  <rect x="258" y="548" width="160" height="16" rx="6" fill="#0f172a" fill-opacity="0.1"/>
  <rect x="432" y="548" width="230" height="16" rx="6" fill="#0f172a" fill-opacity="0.07"/>
  <rect x="676" y="548" width="220" height="16" rx="6" fill="#0f172a" fill-opacity="0.07"/>

  <rect x="230" y="633" width="280" height="20" rx="10" fill="#0f172a" fill-opacity="0.1"/>
  <rect x="526" y="620" width="250" height="46" rx="14" fill="#2563eb"/>
  <text x="651" y="649" fill="white" font-size="20" font-family="Segoe UI, Arial, sans-serif" text-anchor="middle" font-weight="700">Open Teacher Data</text>
</svg>
